<?xml version="1.0" encoding="utf-8"?><svg xmlns="http://www.w3.org/2000/svg" xmlns:xlink="http://www.w3.org/1999/xlink"><symbol viewBox="0 0 42.21 12.717" id="amazon" xmlns="http://www.w3.org/2000/svg"><path d="M15.658.795c-.366-.507-.965-.733-1.511-.733-.771 0-1.489.395-1.806 1.242-.366-.846-.878-1.242-1.695-1.242-.805 0-1.402.395-1.721 1.242h-.022V.428a.245.245 0 0 0-.237-.224H7.448a.246.246 0 0 0-.252.241v6.704c.009.12.109.213.234.221h1.307a.247.247 0 0 0 .251-.242V3.573c0-.775-.038-1.848.9-1.848.928 0 .807 1.1.807 1.848v3.554c0 .129.104.232.236.242h1.304a.246.246 0 0 0 .252-.242V3.573c0-.381-.012-.947.121-1.285a.868.868 0 0 1 .781-.549c.379 0 .671.127.768.577.062.269.037.974.037 1.257v3.554c0 .129.105.232.235.242h1.305a.247.247 0 0 0 .251-.242l.002-4.23c0-.719.084-1.538-.329-2.102zM32.876.063c-1.89 0-2.938 1.623-2.938 3.709 0 2.074 1.035 3.738 2.938 3.738 1.828 0 2.987-1.622 2.987-3.667.005-2.116-1.047-3.78-2.987-3.78zm0 6.065c-1.024 0-1.013-1.749-1.013-2.568 0-.817.062-2.129 1.023-2.129.414 0 .709.182.854.649.172.536.196 1.212.196 1.778.004.86-.045 2.27-1.06 2.27zm-9.576.016c-.238-.332-.49-.6-.49-1.211V2.897c0-.861.059-1.653-.576-2.247C21.733.169 20.902 0 20.267 0c-1.242 0-2.631.463-2.921 1.999-.031.164.087.25.194.274l1.266.136c.118-.005.205-.121.228-.239.107-.529.552-.784 1.05-.784.269 0 .574.099.731.34.185.268.16.636.16.946l-.001.166c-.757.087-1.747.142-2.456.454-.819.353-1.392 1.075-1.392 2.135 0 1.357.854 2.036 1.953 2.036.928 0 1.438-.219 2.154-.95.236.344.315.512.749.872a.275.275 0 0 0 .31-.03l.002.002c.261-.23.734-.645 1-.867.105-.087.09-.229.006-.346zm-2.326-1.975c0 .509.014.933-.245 1.385-.206.368-.537.593-.901.593-.503 0-.797-.381-.797-.946 0-1.113.998-1.315 1.943-1.315zM41.868.852c-.367-.578-.942-.79-1.527-.791-.901 0-1.416.437-1.78 1.354h-.021V.39a.25.25 0 0 0-.234-.188h-1.211a.248.248 0 0 0-.252.219l.002 6.706c0 .129.103.234.236.244h1.299a.252.252 0 0 0 .256-.244V3.519c0-.453.023-.86.209-1.27.145-.323.436-.536.756-.536.9 0 .814 1.073.814 1.806V7.16c.01.113.113.201.23.212h1.311a.255.255 0 0 0 .254-.212V2.94c0-.649 0-1.55-.342-2.088zM29.081 5.555c-.75-.422-1.621-.546-2.449-.525l2.228-3.176c.205-.286.322-.465.322-.603V.43a.238.238 0 0 0-.248-.243h-4.293a.235.235 0 0 0-.242.243v.959c0 .143.108.241.248.241h2.244l-2.578 3.696c-.156.237-.158.503-.158.659v.973c0 .14.159.301.307.219 1.461-.775 3.213-.698 4.533-.006.164.084.316-.08.316-.22V5.927c-.015-.137-.06-.278-.23-.372zm-.83 2.427c-.267-.331-2.567-.616-3.97.369-.214.151-.179.36.062.332.789-.093 2.549-.304 2.861.096.313.401-.349 2.057-.646 2.795-.091.224.103.314.305.146 1.319-1.098 1.657-3.404 1.388-3.738z"/><path d="M25.831 9.37a22.032 22.032 0 0 1-8.457 1.729c-4.027 0-7.93-1.103-11.083-2.939-.275-.162-.48.121-.251.328 2.923 2.641 6.786 4.229 11.077 4.229 3.062 0 6.615-.963 9.069-2.771.405-.3.06-.75-.355-.576zM6.175 6.144c-.239-.332-.492-.6-.492-1.211V2.897c0-.861.061-1.653-.574-2.247C4.607.169 3.777 0 3.14 0 1.898 0 .512.463.219 1.999c-.03.164.09.25.194.274l1.27.136c.116-.005.203-.121.226-.239.107-.529.553-.784 1.051-.784.268 0 .572.099.732.34.182.268.157.636.157.946v.168c-.756.088-1.746.143-2.456.455C.577 3.646 0 4.368 0 5.428c0 1.357.856 2.036 1.955 2.036.93 0 1.438-.219 2.154-.95.237.344.315.512.749.872a.274.274 0 0 0 .309-.03l.004.002c.26-.23.733-.645 1.001-.867.106-.09.088-.23.003-.347zM3.849 4.169c0 .509.014.933-.244 1.385-.207.368-.536.593-.904.593-.501 0-.792-.381-.792-.946 0-1.113.997-1.315 1.94-1.315z"/></symbol><symbol viewBox="0 0 47.902 16.378" id="american-express" xmlns="http://www.w3.org/2000/svg"><path d="M34.554 1.798l-.881 2.139h1.77zm-30.449 0l-.871 2.139h1.749zm20.215.303c-.152-.086-.386-.097-.608-.097h-1.58v1.191h1.559c.247 0 .455-.004.634-.11.165-.087.264-.276.264-.51 0-.23-.103-.396-.27-.474zm5.496 9.23c-.156-.093-.386-.097-.612-.097h-1.58v1.205h1.559c.25 0 .463-.008.636-.109.166-.102.265-.285.265-.516-.003-.231-.102-.397-.268-.483zm-6.246-.099H21.9v1.367h1.656c.493 0 .8-.244.8-.707-.001-.472-.32-.66-.784-.66z"/><path d="M47.262 12.038a.332.332 0 0 0-.028-.026.887.887 0 0 0 .405-.744v-1.143a.886.886 0 0 0-.887-.887h-2.57c-.801 0-1.405.236-1.845.592a.875.875 0 0 0-.826-.592h-2.57c-.707 0-1.264.175-1.688.463a.872.872 0 0 0-.763-.463h-4.28a.88.88 0 0 0-.783.488c-.061-.043-.106-.093-.17-.131-.621-.332-1.281-.357-1.961-.357h-2.963a.879.879 0 0 0-.783.492c-.451-.293-1.082-.492-1.98-.492h-4.097c-.247 0-.482.1-.651.282l-.971 1.047-.932-1.035a.869.869 0 0 0-.66-.295h-5.157a.886.886 0 0 0-.886.887v5.367c0 .491.397.887.886.887h5.08a.883.883 0 0 0 .65-.285l.98-1.059.929 1.045c.168.19.41.297.663.297h2.493a.886.886 0 0 0 .887-.885v-.916h.713c.867 0 1.494-.178 1.95-.449v1.365c0 .489.397.885.887.885h1.289a.886.886 0 0 0 .887-.885v-1.076h.483c.118 0 .2.004.26.008.005.096.005.211.003.287v.781c0 .489.399.885.887.885h1.287a.844.844 0 0 0 .392-.1c.12.059.249.1.39.1h4.282a.877.877 0 0 0 .385-.096.867.867 0 0 0 .385.096h2.498c.795 0 1.443-.195 1.928-.539a.883.883 0 0 0 .814.539h2.498c1.817 0 2.9-.965 2.9-2.58 0-.748-.202-1.305-.64-1.758zm-23.764 1.65h-1.6v1.801h-2.493l-1.58-1.776-1.642 1.776h-5.081v-5.368h5.158l1.58 1.76 1.632-1.76h4.098c1.017 0 2.162.285 2.162 1.771 0 1.489-1.112 1.799-2.234 1.796zm7.093-.691c.284.104.517.293.625.451.183.262.207.506.213.979v1.064h-1.287v-.672c0-.322.03-.801-.21-1.051-.183-.191-.468-.236-.938-.236h-1.37v1.959h-1.29v-5.367h2.964c.648 0 1.12.027 1.543.252.404.244.659.58.659 1.191 0 .858-.573 1.295-.91 1.43zm5.9-1.764h-3.003v.977h2.93v1.096h-2.93v1.066l3.004.006v1.113h-4.28v-5.367h4.28zm3.272 4.252h-2.498v-1.153h2.487c.242 0 .415-.03.523-.133a.477.477 0 0 0 .15-.351.453.453 0 0 0-.156-.354c-.1-.082-.232-.119-.457-.119-1.198-.039-2.701.037-2.701-1.66 0-.781.488-1.598 1.834-1.598h2.57v1.142h-2.353c-.235 0-.386.01-.514.098-.141.088-.194.217-.194.387 0 .203.119.338.28.4.137.047.28.061.5.061l.689.02c.695.019 1.174.139 1.463.432.252.259.385.587.385 1.138 0 1.157-.72 1.696-2.008 1.69zm5.24 0h-2.497v-1.153h2.488c.242 0 .415-.03.522-.133a.477.477 0 0 0 .15-.351.453.453 0 0 0-.156-.354c-.1-.082-.231-.119-.457-.119-1.2-.039-2.701.037-2.701-1.66 0-.781.488-1.598 1.834-1.598h2.57v1.142h-2.352c-.236 0-.388.01-.515.098-.141.088-.193.217-.193.387 0 .203.12.338.279.4.138.047.28.061.5.061l.689.02c.696.019 1.176.139 1.465.432.25.259.385.587.385 1.138 0 1.157-.721 1.696-2.01 1.69zM43.236 0h-1.313a.886.886 0 0 0-.887.886v.554l-.61-1.011a.89.89 0 0 0-.757-.428h-1.955a.886.886 0 0 0-.886.886v.753L36.357.538a.885.885 0 0 0-.813-.537h-1.922a.878.878 0 0 0-.53.176.88.88 0 0 0-.53-.176h-1.24c-1.053 0-1.833.255-2.407.753a.875.875 0 0 0-.86-.753h-1.31a.883.883 0 0 0-.788.499c-.055-.04-.097-.088-.16-.124-.6-.348-1.233-.375-1.997-.375h-2.95a.867.867 0 0 0-.445.137.855.855 0 0 0-.444-.137h-4.284a.862.862 0 0 0-.478.159.868.868 0 0 0-.478-.159h-2.138a.885.885 0 0 0-.814.541l-.762 1.796-.84-1.822a.89.89 0 0 0-.804-.515H7.269a.886.886 0 0 0-.886.886v.771L5.902.536A.887.887 0 0 0 5.087 0H3.183a.888.888 0 0 0-.815.537L.072 5.904a.887.887 0 0 0 .814 1.235H2.28a.886.886 0 0 0 .816-.546l.27-.652h1.487l.267.648c.136.332.46.549.82.549h2.609c.49 0 .886-.397.886-.886v-.021l.168.381c.142.32.46.527.81.527l1.127.002a.884.884 0 0 0 .81-.528l.17-.38v.022c0 .489.396.885.886.885h1.315c.18 0 .337-.068.478-.159a.87.87 0 0 0 .478.159h4.284a.855.855 0 0 0 .444-.137.864.864 0 0 0 .445.137h1.284c.49 0 .886-.397.886-.886V5.188h.49c.11 0 .19.003.249.007.006.091.004.199.004.271l-.002.118.005.677a.888.888 0 0 0 .887.879h1.294a.865.865 0 0 0 .397-.107.872.872 0 0 0 .4.107h1.31c.43 0 .77-.31.854-.714.727.611 1.75.714 2.32.714h1.504c.358 0 .682-.22.817-.555l.26-.643h1.479l.27.652a.886.886 0 0 0 .819.545h2.61c.49 0 .886-.397.886-.886v-.847l.787 1.305a.889.889 0 0 0 .76.428h1.816c.49 0 .886-.397.886-.886V.886A.887.887 0 0 0 43.236 0zM14.72 6.252h-1.315L13.4 2.049l-1.86 4.203h-1.127L8.55 2.045v4.207H5.939l-.493-1.197h-2.67l-.498 1.197H.884L3.18.885h1.904l2.183 5.082V.885h2.094l1.679 3.641L12.58.885h2.139v5.367zm5.24-4.249h-3.002v.967h2.93v1.1h-2.93v1.072h3.002v1.11h-4.284V.885h4.284zm5.137 1.759c.28.108.52.296.635.452.182.267.213.505.213.984v1.053H24.65l-.006-.677c0-.322.03-.786-.202-1.045-.187-.188-.473-.229-.935-.229h-1.375v1.952h-1.285V.886h2.95c.656 0 1.139.017 1.553.257.406.24.649.59.649 1.189 0 .855-.571 1.298-.903 1.43zm2.959 2.49h-1.31V.885h1.31zm15.18 0h-1.817l-2.433-4.028v4.028h-2.61l-.5-1.197H33.21l-.482 1.197h-1.502c-.623 0-1.41-.138-1.856-.593-.454-.456-.688-1.074-.688-2.049 0-.796.14-1.524.687-2.1.413-.428 1.062-.625 1.948-.625h1.239v1.15H31.34c-.467 0-.732.069-.986.318-.22.226-.368.653-.368 1.216 0 .574.114.988.354 1.259.199.213.559.277.894.277h.575l1.812-4.22h1.922l2.17 5.076V.885h1.955l2.254 3.738V.885h1.313zm-11.448-3.33l-.557 1.299c-.123 0-.206-.014-.252-.026-.043-.08-.102-.257-.102-.625 0-.372.09-.565.102-.582.037-.036.068-.067.369-.067z"/><path d="M18.65 12.816l1.97 2.188v-4.303zm-6.267 1.557h3.152L17 12.796l-1.403-1.562h-3.214v.975h2.815v1.096h-2.815z"/></symbol><symbol viewBox="0 0 16 9" id="arrow-down" xmlns="http://www.w3.org/2000/svg"><defs><path id="ca" d="M464.353 276.353l-7 7L457 283l-.354.353-7-7 .707-.707 6.647 6.647 6.646-6.647.707.707"/></defs><g transform="translate(-449 -275)"><use xlink:href="#ca"/><use xlink:href="#ca"/></g></symbol><symbol viewBox="0 0 9 16" id="arrow-left" xmlns="http://www.w3.org/2000/svg"><defs><path id="da" d="M1163.646 1075.353l-7-7 .354-.353-.354-.354 7-7 .707.707-6.646 6.647 6.646 6.646-.707.707"/></defs><g transform="translate(-1156 -1060)"><use xlink:href="#da"/><use xlink:href="#da"/></g></symbol><symbol viewBox="0 0 9 16" id="arrow-right" xmlns="http://www.w3.org/2000/svg"><defs><path id="ea" d="M1196.353 1075.353l-.707-.707 6.647-6.646-6.647-6.647.707-.707 7 7-.353.354.354.353-7 7"/></defs><g transform="translate(-1195 -1060)"><use xlink:href="#ea"/><use xlink:href="#ea"/></g></symbol><symbol viewBox="0 0 299.995 299.995" id="clock" xmlns="http://www.w3.org/2000/svg"><path d="M149.995 0C67.156 0 0 67.158 0 149.995s67.156 150 149.995 150 150-67.163 150-150S232.834 0 149.995 0zm64.847 178.524H151.25c-.215 0-.415-.052-.628-.06-.213.01-.412.06-.628.06-5.729 0-10.374-4.645-10.374-10.374V62.249c0-5.729 4.645-10.374 10.374-10.374s10.374 4.645 10.374 10.374v95.527h54.47c5.729 0 10.374 4.645 10.374 10.374 0 5.729-4.641 10.374-10.37 10.374z"/></symbol><symbol viewBox="0 0 64 64" id="dribbble" xmlns="http://www.w3.org/2000/svg"><path d="M32 0C14.355 0 0 14.355 0 32s14.355 32 32 32 32-14.355 32-32S49.645 0 32 0zm28 32.004c-7.77-2.025-14.551-2.107-20.402-.996a131.866 131.866 0 0 0-2.625-5.68c6.141-2.469 11.957-6.104 16.438-11.338C57.516 18.863 60 25.145 60 32v.004zm-9.377-20.856c-4.102 4.898-9.635 8.254-15.5 10.549-4.115-7.799-8.133-13.666-10.357-16.715C27.078 4.361 29.496 4 32 4c7.154 0 13.668 2.719 18.623 7.148zM20.797 6.357c1.805 2.428 6.051 8.42 10.463 16.695-10.928 3.404-22.115 3.586-26.715 3.482 1.801-9.061 7.99-16.554 16.252-20.177zM4 32c0-.494.051-.975.074-1.463a82.43 82.43 0 0 0 2.758.045c5.844 0 16.168-.574 26.307-3.873a136.305 136.305 0 0 1 2.475 5.273c-13.445 4.045-21.23 14.258-24.189 18.941C6.832 45.934 4 39.299 4 32zm10.359 21.717c2.188-3.807 9.328-14.383 22.787-18.129 2.717 6.684 5.047 14.113 6.346 21.918A27.809 27.809 0 0 1 32 60c-6.684 0-12.82-2.361-17.641-6.283zm32.85 1.76c-1.342-7.398-3.529-14.406-6.057-20.752 5.309-.842 11.461-.604 18.52 1.334-1.188 8.125-5.856 15.123-12.463 19.418z"/></symbol><symbol viewBox="0 0 96.124 96.123" id="fb" xmlns="http://www.w3.org/2000/svg"><path d="M72.089.02L59.624 0C45.62 0 36.57 9.285 36.57 23.656v10.907H24.037a1.96 1.96 0 0 0-1.96 1.961v15.803a1.96 1.96 0 0 0 1.96 1.96H36.57v39.876a1.96 1.96 0 0 0 1.96 1.96h16.352a1.96 1.96 0 0 0 1.96-1.96V54.287h14.654a1.96 1.96 0 0 0 1.96-1.96l.006-15.803a1.963 1.963 0 0 0-1.961-1.961H56.842v-9.246c0-4.444 1.059-6.7 6.848-6.7l8.397-.003a1.96 1.96 0 0 0 1.959-1.96V1.98A1.96 1.96 0 0 0 72.089.02z"/></symbol><symbol viewBox="0 0 96.828 96.827" id="google-plus" xmlns="http://www.w3.org/2000/svg"><path d="M62.617 0H39.525c-10.29 0-17.413 2.256-23.824 7.552-5.042 4.35-8.051 10.672-8.051 16.912 0 9.614 7.33 19.831 20.913 19.831 1.306 0 2.752-.134 4.028-.253l-.188.457c-.546 1.308-1.063 2.542-1.063 4.468 0 3.75 1.809 6.063 3.558 8.298l.22.283-.391.027c-5.609.384-16.049 1.1-23.675 5.787-9.007 5.355-9.707 13.145-9.707 15.404 0 8.988 8.376 18.06 27.09 18.06 21.76 0 33.146-12.005 33.146-23.863.002-8.771-5.141-13.101-10.6-17.698l-4.605-3.582c-1.423-1.179-3.195-2.646-3.195-5.364 0-2.672 1.772-4.436 3.336-5.992l.163-.165c4.973-3.917 10.609-8.358 10.609-17.964 0-9.658-6.035-14.649-8.937-17.048h7.663a.488.488 0 0 0 .266-.077l6.601-4.15A.5.5 0 0 0 62.617 0zM34.614 91.535c-13.264 0-22.176-6.195-22.176-15.416 0-6.021 3.645-10.396 10.824-12.997 5.749-1.935 13.17-2.031 13.244-2.031 1.257 0 1.889 0 2.893.126 9.281 6.605 13.743 10.073 13.743 16.678-.001 8.414-7.101 13.64-18.528 13.64zm-.125-50.779c-11.132 0-15.752-14.633-15.752-22.468 0-3.984.906-7.042 2.77-9.351 2.023-2.531 5.487-4.166 8.825-4.166 10.221 0 15.873 13.738 15.873 23.233 0 1.498 0 6.055-3.148 9.22-2.117 2.113-5.56 3.532-8.568 3.532zm60.493 4.467H82.814V33.098a.5.5 0 0 0-.5-.5H77.08a.5.5 0 0 0-.5.5v12.125H64.473a.5.5 0 0 0-.5.5v5.304a.5.5 0 0 0 .5.5H76.58V63.73a.5.5 0 0 0 .5.5h5.234c.275 0 .5-.225.5-.5V51.525h12.168a.5.5 0 0 0 .5-.5v-5.302c0-.277-.223-.5-.5-.5z"/></symbol><symbol viewBox="0 0 97.395 97.395" id="insta" xmlns="http://www.w3.org/2000/svg"><path d="M12.501 0h72.393c6.875 0 12.5 5.09 12.5 12.5v72.395c0 7.41-5.625 12.5-12.5 12.5H12.501C5.624 97.395 0 92.305 0 84.895V12.5C0 5.09 5.624 0 12.501 0zm58.447 10.821a4.395 4.395 0 0 0-4.383 4.385v10.495a4.396 4.396 0 0 0 4.383 4.385h11.008a4.398 4.398 0 0 0 4.385-4.385V15.206a4.397 4.397 0 0 0-4.385-4.385H70.948zm15.439 30.367h-8.572a28.486 28.486 0 0 1 1.25 8.355c0 16.2-13.556 29.332-30.275 29.332-16.718 0-30.272-13.132-30.272-29.332 0-2.904.438-5.708 1.25-8.355h-8.945v41.141a3.884 3.884 0 0 0 3.872 3.872h67.822a3.883 3.883 0 0 0 3.872-3.872V41.188h-.002zM48.789 29.533c-10.802 0-19.56 8.485-19.56 18.953s8.758 18.953 19.56 18.953c10.803 0 19.562-8.485 19.562-18.953s-8.758-18.953-19.562-18.953z"/></symbol><symbol viewBox="0 0 512.001 512.001" id="instagram" xmlns="http://www.w3.org/2000/svg"><path d="M373.406 0H138.594C62.172 0 0 62.172 0 138.594V373.41C0 449.828 62.172 512 138.594 512H373.41C449.828 512 512 449.828 512 373.41V138.594C512 62.172 449.828 0 373.406 0zM256 395.996c-77.195 0-139.996-62.8-139.996-139.996S178.804 116.004 256 116.004 395.996 178.804 395.996 256 333.196 395.996 256 395.996zM399.344 149.02c-22.813 0-41.367-18.555-41.367-41.368s18.554-41.37 41.367-41.37 41.37 18.558 41.37 41.37-18.558 41.368-41.37 41.368zm0 0"/><path d="M256 146.02c-60.64 0-109.98 49.335-109.98 109.98 0 60.64 49.34 109.98 109.98 109.98 60.645 0 109.98-49.34 109.98-109.98 0-60.645-49.335-109.98-109.98-109.98zM399.344 96.3c-6.258 0-11.352 5.095-11.352 11.352 0 6.258 5.094 11.352 11.352 11.352 6.261 0 11.355-5.09 11.355-11.352 0-6.261-5.094-11.351-11.355-11.351zm0 0"/></symbol><symbol viewBox="0 0 512 512" id="map" xmlns="http://www.w3.org/2000/svg"><path d="M256 0C153.755 0 70.573 83.182 70.573 185.426c0 126.888 165.939 313.167 173.004 321.035 6.636 7.391 18.222 7.378 24.846 0 7.065-7.868 173.004-194.147 173.004-321.035C441.425 83.182 358.244 0 256 0zm0 278.719c-51.442 0-93.292-41.851-93.292-93.293S204.559 92.134 256 92.134s93.291 41.851 93.291 93.293-41.85 93.292-93.291 93.292z"/></symbol><symbol viewBox="0 0 95.481 95.481" id="ok" xmlns="http://www.w3.org/2000/svg"><path d="M43.041 67.254c-7.402-.772-14.076-2.595-19.79-7.064-.709-.556-1.441-1.092-2.088-1.713-2.501-2.402-2.753-5.153-.774-7.988 1.693-2.426 4.535-3.075 7.489-1.682.572.27 1.117.607 1.639.969 10.649 7.317 25.278 7.519 35.967.329 1.059-.812 2.191-1.474 3.503-1.812 2.551-.655 4.93.282 6.299 2.514 1.564 2.549 1.544 5.037-.383 7.016-2.956 3.034-6.511 5.229-10.461 6.761-3.735 1.448-7.826 2.177-11.875 2.661.611.665.899.992 1.281 1.376 5.498 5.524 11.02 11.025 16.5 16.566 1.867 1.888 2.257 4.229 1.229 6.425-1.124 2.4-3.64 3.979-6.107 3.81-1.563-.108-2.782-.886-3.865-1.977-4.149-4.175-8.376-8.273-12.441-12.527-1.183-1.237-1.752-1.003-2.796.071-4.174 4.297-8.416 8.528-12.683 12.735-1.916 1.889-4.196 2.229-6.418 1.15-2.362-1.145-3.865-3.556-3.749-5.979.08-1.639.886-2.891 2.011-4.014 5.441-5.433 10.867-10.88 16.295-16.322.359-.362.694-.746 1.217-1.305z"/><path d="M47.55 48.329c-13.205-.045-24.033-10.992-23.956-24.218C23.67 10.739 34.505-.037 47.84 0c13.362.036 24.087 10.967 24.02 24.478-.068 13.199-10.971 23.897-24.31 23.851zm12.001-24.186c-.023-6.567-5.253-11.795-11.807-11.801-6.609-.007-11.886 5.316-11.835 11.943.049 6.542 5.324 11.733 11.896 11.709 6.552-.023 11.768-5.285 11.746-11.851z"/></symbol><symbol viewBox="0 0 50.409 13.646" id="paypal" xmlns="http://www.w3.org/2000/svg"><path d="M9.035 2.223a2.043 2.043 0 0 0-.75-.809A3.513 3.513 0 0 0 7.092.976 9.75 9.75 0 0 0 5.47.848L2.604.85a.718.718 0 0 0-.66.524L.014 9.776c-.07.284.118.522.416.522h1.373a.703.703 0 0 0 .659-.522l.47-2.04a.703.703 0 0 1 .659-.521h.393c1.679-.002 2.979-.345 3.913-1.032.939-.688 1.402-1.597 1.402-2.723-.001-.493-.082-.907-.264-1.237zM6.074 4.968c-.415.304-.992.456-1.736.456h-.336c-.3 0-.482-.236-.417-.524l.413-1.784c.058-.286.359-.523.654-.521l.45-.003c.525 0 .926.091 1.194.267.265.174.398.451.396.818.008.558-.205.987-.618 1.291zM47.76 1.456l-.032-.11-.002-.165V.57h.459V.381h-.46V0H47.5v.381h-.154V.57h.154v.711l.106.352.312.112.13-.011.14-.027v-.201h-.012l-.086.026-.115.016-.141-.022zM49.345.399l-.232-.055-.223.049-.211.136V.381h-.223v1.335h.222V.719l.187-.116.186-.046.152.027.075.077.033.128.01.165v.763h.224V.863L49.54.792l-.004-.065.19-.121.188-.047.147.027.08.077.028.129.015.163v.763h.224V.851l-.105-.373-.328-.135-.242.049-.246.166zM15.656 3.424c-.518-.292-1.336-.438-2.454-.438-.553 0-1.104.043-1.661.129-.411.063-.451.075-.704.13-.522.114-.604.635-.604.635l-.168.691c-.095.441.159.424.265.387.228-.068.355-.138.82-.242.446-.101.915-.177 1.287-.172.549 0 .969.058 1.249.176.276.12.414.326.414.624l-.024.194-.198.122c-.78.049-1.342.121-2.025.22-.668.093-1.254.256-1.741.479-.523.23-.911.539-1.182.932-.262.395-.393.874-.393 1.436 0 .529.19.966.559 1.304.37.332.86.494 1.447.494.37-.002.658-.031.862-.08l.665-.229.563-.312.518-.342.007.01-.052.22-.003.009v.002c-.056.268.106.488.367.514l.005.006h1.275l.018-.008a.71.71 0 0 0 .59-.514l1.002-4.333.052-.353.024-.331c.004-.614-.261-1.069-.78-1.36zm-2.214 4.872l-.214.282-.54.279a1.923 1.923 0 0 1-.718.155c-.338 0-.603-.049-.782-.149l-.265-.515c0-.279.064-.5.2-.67l.583-.396c.249-.084.553-.155.905-.204.314-.039.934-.11 1.015-.112l.095.167c-.02.095-.195.831-.28 1.163zM40.594 3.43c-.521-.292-1.338-.439-2.453-.439-.553 0-1.105.043-1.66.132-.412.06-.453.073-.707.127-.521.113-.602.636-.602.636l-.168.69c-.094.441.154.421.27.387.229-.068.352-.135.814-.243.443-.1.916-.174 1.289-.172.547 0 .967.059 1.246.177.278.12.414.328.414.623l-.021.193-.196.125c-.787.047-1.351.119-2.027.218-.666.093-1.254.255-1.742.479-.521.231-.914.54-1.182.934-.265.395-.394.873-.394 1.43 0 .533.188.97.562 1.306.373.331.858.497 1.444.497.369-.004.656-.028.86-.081l.664-.226.568-.312.514-.346.009.011-.047.222-.005.004.002.004c-.062.268.1.49.365.514l.002.005h1.274l.02-.007a.703.703 0 0 0 .585-.518l1.004-4.327.053-.355.029-.332c0-.612-.261-1.065-.784-1.356zm-2.21 4.872l-.222.285-.535.277a1.945 1.945 0 0 1-.715.155c-.35 0-.607-.05-.781-.15l-.268-.513c0-.28.065-.499.196-.672.133-.163.336-.297.588-.395a5.1 5.1 0 0 1 .904-.203c.312-.039.93-.112 1.01-.113l.097.167c-.014.095-.191.828-.273 1.162zm-4.415-6.048a2.124 2.124 0 0 0-.756-.812 3.37 3.37 0 0 0-1.193-.438 9.44 9.44 0 0 0-1.615-.126L27.534.88a.713.713 0 0 0-.655.522l-1.931 8.406c-.07.285.122.521.414.521l1.375-.002a.712.712 0 0 0 .66-.52l.465-2.041a.712.712 0 0 1 .66-.521h.393c1.68 0 2.984-.346 3.922-1.031.927-.693 1.396-1.6 1.396-2.727-.005-.491-.09-.906-.264-1.233zm-2.961 2.749c-.414.298-.992.45-1.732.45h-.342a.411.411 0 0 1-.42-.523l.416-1.781a.698.698 0 0 1 .656-.521l.445-.003c.528.003.924.09 1.194.266.269.176.396.452.399.818.003.558-.204.988-.616 1.294zm14.734-3.534c.063-.287-.117-.52-.412-.516H44.1c-.252 0-.48.187-.59.417l-.068.106-.062.272-1.72 7.814-.055.24.002.006c-.057.257.1.451.345.488l.02.029h1.278c.25 0 .485-.19.592-.424l.066-.1 1.838-8.331zM24.986 3.091c-.325.004-1.646 0-1.646 0-.296 0-.676.239-.864.524 0 0-1.966 3.374-2.157 3.713l-.228-.003-.612-3.687c-.068-.29-.371-.538-.748-.538l-1.23.002c-.296 0-.478.236-.411.524 0 0 .934 5.315 1.12 6.566.088.69-.01.813-.01.813l-1.216 2.118c-.18.288-.083.523.212.523l1.422-.002c.296 0 .685-.233.86-.522l5.47-9.252c0 .001.527-.79.038-.779z"/><path d="M9.035 2.223a2.043 2.043 0 0 0-.75-.809A3.513 3.513 0 0 0 7.092.976 9.75 9.75 0 0 0 5.47.848L2.604.85a.718.718 0 0 0-.66.524L.014 9.776c-.07.284.118.522.416.522h1.373a.703.703 0 0 0 .659-.522l.47-2.04a.703.703 0 0 1 .659-.521h.393c1.679-.002 2.979-.345 3.913-1.032.939-.688 1.402-1.597 1.402-2.723-.001-.493-.082-.907-.264-1.237zM6.074 4.968c-.415.304-.992.456-1.736.456h-.336c-.3 0-.482-.236-.417-.524l.413-1.784c.058-.286.359-.523.654-.521l.45-.003c.525 0 .926.091 1.194.267.265.174.398.451.396.818.008.558-.205.987-.618 1.291zM47.76 1.456l-.032-.11-.002-.165V.57h.459V.381h-.46V0H47.5v.381h-.154V.57h.154v.711l.106.352.312.112.13-.011.14-.027v-.201h-.012l-.086.026-.115.016-.141-.022zM49.345.399l-.232-.055-.223.049-.211.136V.381h-.223v1.335h.222V.719l.187-.116.186-.046.152.027.075.077.033.128.01.165v.763h.224V.863L49.54.792l-.004-.065.19-.121.188-.047.147.027.08.077.028.129.015.163v.763h.224V.851l-.105-.373-.328-.135-.242.049-.246.166zM15.656 3.424c-.518-.292-1.336-.438-2.454-.438-.553 0-1.104.043-1.661.129-.411.063-.451.075-.704.13-.522.114-.604.635-.604.635l-.168.691c-.095.441.159.424.265.387.228-.068.355-.138.82-.242.446-.101.915-.177 1.287-.172.549 0 .969.058 1.249.176.276.12.414.326.414.624l-.024.194-.198.122c-.78.049-1.342.121-2.025.22-.668.093-1.254.256-1.741.479-.523.23-.911.539-1.182.932-.262.395-.393.874-.393 1.436 0 .529.19.966.559 1.304.37.332.86.494 1.447.494.37-.002.658-.031.862-.08l.665-.229.563-.312.518-.342.007.01-.052.22-.003.009v.002c-.056.268.106.488.367.514l.005.006h1.275l.018-.008a.71.71 0 0 0 .59-.514l1.002-4.333.052-.353.024-.331c.004-.614-.261-1.069-.78-1.36zm-2.214 4.872l-.214.282-.54.279a1.923 1.923 0 0 1-.718.155c-.338 0-.603-.049-.782-.149l-.265-.515c0-.279.064-.5.2-.67l.583-.396c.249-.084.553-.155.905-.204.314-.039.934-.11 1.015-.112l.095.167c-.02.095-.195.831-.28 1.163zM40.594 3.43c-.521-.292-1.338-.439-2.453-.439-.553 0-1.105.043-1.66.132-.412.06-.453.073-.707.127-.521.113-.602.636-.602.636l-.168.69c-.094.441.154.421.27.387.229-.068.352-.135.814-.243.443-.1.916-.174 1.289-.172.547 0 .967.059 1.246.177.278.12.414.328.414.623l-.021.193-.196.125c-.787.047-1.351.119-2.027.218-.666.093-1.254.255-1.742.479-.521.231-.914.54-1.182.934-.265.395-.394.873-.394 1.43 0 .533.188.97.562 1.306.373.331.858.497 1.444.497.369-.004.656-.028.86-.081l.664-.226.568-.312.514-.346.009.011-.047.222-.005.004.002.004c-.062.268.1.49.365.514l.002.005h1.274l.02-.007a.703.703 0 0 0 .585-.518l1.004-4.327.053-.355.029-.332c0-.612-.261-1.065-.784-1.356zm-2.21 4.872l-.222.285-.535.277a1.945 1.945 0 0 1-.715.155c-.35 0-.607-.05-.781-.15l-.268-.513c0-.28.065-.499.196-.672.133-.163.336-.297.588-.395a5.1 5.1 0 0 1 .904-.203c.312-.039.93-.112 1.01-.113l.097.167c-.014.095-.191.828-.273 1.162zm-4.415-6.048a2.124 2.124 0 0 0-.756-.812 3.37 3.37 0 0 0-1.193-.438 9.44 9.44 0 0 0-1.615-.126L27.534.88a.713.713 0 0 0-.655.522l-1.931 8.406c-.07.285.122.521.414.521l1.375-.002a.712.712 0 0 0 .66-.52l.465-2.041a.712.712 0 0 1 .66-.521h.393c1.68 0 2.984-.346 3.922-1.031.927-.693 1.396-1.6 1.396-2.727-.005-.491-.09-.906-.264-1.233zm-2.961 2.749c-.414.298-.992.45-1.732.45h-.342a.411.411 0 0 1-.42-.523l.416-1.781a.698.698 0 0 1 .656-.521l.445-.003c.528.003.924.09 1.194.266.269.176.396.452.399.818.003.558-.204.988-.616 1.294zm14.734-3.534c.063-.287-.117-.52-.412-.516H44.1c-.252 0-.48.187-.59.417l-.068.106-.062.272-1.72 7.814-.055.24.002.006c-.057.257.1.451.345.488l.02.029h1.278c.25 0 .485-.19.592-.424l.066-.1 1.838-8.331zM24.986 3.091c-.325.004-1.646 0-1.646 0-.296 0-.676.239-.864.524 0 0-1.966 3.374-2.157 3.713l-.228-.003-.612-3.687c-.068-.29-.371-.538-.748-.538l-1.23.002c-.296 0-.478.236-.411.524 0 0 .934 5.315 1.12 6.566.088.69-.01.813-.01.813l-1.216 2.118c-.18.288-.083.523.212.523l1.422-.002c.296 0 .685-.233.86-.522l5.47-9.252c0 .001.527-.79.038-.779z"/></symbol><symbol viewBox="0 0 25.625 25.625" id="phone" xmlns="http://www.w3.org/2000/svg"><path d="M22.079 17.835c-1.548-1.324-3.119-2.126-4.648-.804l-.913.799c-.668.58-1.91 3.29-6.712-2.234-4.801-5.517-1.944-6.376-1.275-6.951l.918-.8c1.521-1.325.947-2.993-.15-4.71l-.662-1.04C7.535.382 6.335-.743 4.81.58l-.824.72c-.674.491-2.558 2.087-3.015 5.119-.55 3.638 1.185 7.804 5.16 12.375 3.97 4.573 7.857 6.87 11.539 6.83 3.06-.033 4.908-1.675 5.486-2.272l.827-.721c1.521-1.322.576-2.668-.973-3.995l-.931-.801z"/></symbol><symbol viewBox="0 0 402.041 402.04" id="rss" xmlns="http://www.w3.org/2000/svg"><path d="M54.816 292.382c-15.229 0-28.169 5.331-38.831 15.988C5.33 319.026 0 331.969 0 347.197c0 15.232 5.325 28.172 15.985 38.828 10.662 10.657 23.606 15.988 38.831 15.988 15.227 0 28.168-5.331 38.828-15.988 10.656-10.656 15.986-23.596 15.986-38.828 0-15.229-5.33-28.171-15.986-38.827-10.657-10.657-23.598-15.988-38.828-15.988zm126.194-71.38c-21.51-21.698-46.158-38.97-73.948-51.816-27.79-12.85-56.914-20.511-87.366-22.985h-1.425c-4.949 0-9.042 1.619-12.275 4.854C1.997 154.477 0 158.953 0 164.472v38.543c0 4.757 1.569 8.85 4.708 12.279 3.14 3.429 7.089 5.332 11.848 5.708 43.586 4.189 80.845 21.752 111.773 52.678 30.93 30.926 48.49 68.187 52.677 111.771.382 4.764 2.284 8.712 5.712 11.847 3.427 3.148 7.517 4.72 12.275 4.72h38.545c5.517 0 9.989-1.995 13.415-5.996 3.621-3.812 5.236-8.381 4.863-13.709-2.478-30.447-10.14-59.573-22.987-87.361-12.846-27.792-30.121-52.438-51.819-73.95z"/><path d="M367.728 239.701c-20.365-45.585-48.345-86.078-83.936-121.482-35.405-35.594-75.896-63.572-121.485-83.939C116.723 13.917 68.996 2.494 19.126.02h-.855c-4.949 0-9.136 1.713-12.563 5.14C1.903 8.583 0 12.964 0 18.294v40.825c0 4.76 1.667 8.897 4.996 12.419 3.33 3.523 7.373 5.376 12.132 5.57 40.924 2.478 79.799 12.188 116.63 29.127 36.83 16.94 68.806 38.972 95.93 66.09 27.118 27.123 49.149 59.101 66.089 95.931 16.94 36.836 26.557 75.705 28.839 116.627.195 4.764 2.046 8.809 5.564 12.139 3.524 3.329 7.762 4.999 12.71 4.999h40.823c5.331 0 9.701-1.902 13.134-5.715 3.809-3.806 5.517-8.274 5.144-13.415-2.471-49.874-13.898-97.6-34.263-143.19z"/></symbol><symbol viewBox="0 0 612 612" id="twitter" xmlns="http://www.w3.org/2000/svg"><path d="M612 116.258a250.714 250.714 0 0 1-72.088 19.772c25.929-15.527 45.777-40.155 55.184-69.411-24.322 14.379-51.169 24.82-79.775 30.48-22.907-24.437-55.49-39.658-91.63-39.658-69.334 0-125.551 56.217-125.551 125.513 0 9.828 1.109 19.427 3.251 28.606-104.326-5.24-196.835-55.223-258.75-131.174-10.823 18.51-16.98 40.078-16.98 63.101 0 43.559 22.181 81.993 55.835 104.479a125.556 125.556 0 0 1-56.867-15.756v1.568c0 60.806 43.291 111.554 100.693 123.104-10.517 2.83-21.607 4.398-33.08 4.398-8.107 0-15.947-.803-23.634-2.333 15.985 49.907 62.336 86.199 117.253 87.194-42.947 33.654-97.099 53.655-155.916 53.655-10.134 0-20.116-.612-29.944-1.721 55.567 35.681 121.536 56.485 192.438 56.485 230.948 0 357.188-191.291 357.188-357.188l-.421-16.253c24.666-17.593 46.005-39.697 62.794-64.861z"/></symbol><symbol viewBox="0 0 43.028 43.028" id="user" xmlns="http://www.w3.org/2000/svg"><path d="M39.561 33.971l-.145.174c-4.774 5.728-11.133 8.884-17.902 8.884-6.77 0-13.128-3.155-17.903-8.884l-.144-.174.034-.223c.922-6.014 4.064-10.845 8.847-13.606l.34-.196.271.284c2.259 2.37 5.297 3.674 8.554 3.674s6.295-1.305 8.554-3.674l.271-.284.34.196c4.783 2.761 7.925 7.592 8.848 13.606l.035.223zM21.514 21.489c5.924 0 10.744-4.82 10.744-10.744C32.258 4.821 27.438 0 21.514 0S10.77 4.821 10.77 10.744s4.82 10.745 10.744 10.745z"/></symbol><symbol viewBox="0 0 47.834 14.725" id="visa" xmlns="http://www.w3.org/2000/svg"><path d="M20.61 14.511L23.043.245h-3.89l-2.431 14.266zM13.462.261L9.654 9.99l-.406-1.469c-.751-1.77-2.883-4.312-5.386-5.914l3.482 11.897 4.114-.007L17.581.258z"/><path d="M7.772 1.282C7.546.413 6.891.154 6.078.123H.05L0 .407c4.691 1.138 7.795 3.88 9.083 7.177zM30.923 2.98a7.178 7.178 0 0 1 2.91.546l.351.165.526-3.092C33.94.31 32.733 0 31.227 0c-3.842 0-6.55 1.935-6.571 4.708-.025 2.049 1.929 3.193 3.405 3.876 1.515.7 2.023 1.145 2.016 1.77-.012.955-1.208 1.393-2.325 1.393-1.557 0-2.384-.215-3.661-.747l-.501-.228-.547 3.193c.91.399 2.589.742 4.332.76 4.087 0 6.743-1.912 6.771-4.875.017-1.621-1.02-2.858-3.267-3.873-1.36-.662-2.192-1.102-2.184-1.77 0-.593.706-1.227 2.228-1.227zM44.688.261h-3.004c-.933 0-1.627.254-2.037 1.184l-5.773 13.074h4.083s.666-1.758.817-2.143l4.979.006c.116.498.474 2.137.474 2.137h3.607zm-4.795 9.195c.32-.819 1.549-3.987 1.549-3.987-.021.039.317-.825.518-1.362l.262 1.23.901 4.119z"/></symbol><symbol viewBox="0 0 548.358 548.358" id="vk" xmlns="http://www.w3.org/2000/svg"><path d="M545.451 400.298c-.664-1.431-1.283-2.618-1.858-3.569-9.514-17.135-27.695-38.167-54.532-63.102l-.567-.571-.284-.28-.287-.287h-.288c-12.18-11.611-19.893-19.418-23.123-23.415-5.91-7.614-7.234-15.321-4.004-23.13 2.282-5.9 10.854-18.36 25.696-37.397 7.807-10.089 13.99-18.175 18.556-24.267 32.931-43.78 47.208-71.756 42.828-83.939l-1.701-2.847c-1.143-1.714-4.093-3.282-8.846-4.712-4.764-1.427-10.853-1.663-18.278-.712l-82.224.568c-1.332-.472-3.234-.428-5.712.144l-3.713.859-1.431.715-1.136.859c-.952.568-1.999 1.567-3.142 2.995-1.137 1.423-2.088 3.093-2.848 4.996-8.952 23.031-19.13 44.444-30.553 64.238-7.043 11.803-13.511 22.032-19.418 30.693-5.899 8.658-10.848 15.037-14.842 19.126-4 4.093-7.61 7.372-10.852 9.849-3.237 2.478-5.708 3.525-7.419 3.142-1.715-.383-3.33-.763-4.859-1.143-2.663-1.714-4.805-4.045-6.42-6.995-1.622-2.95-2.714-6.663-3.285-11.136-.568-4.476-.904-8.326-1-11.563-.089-3.233-.048-7.806.145-13.706.198-5.903.287-9.897.287-11.991 0-7.234.141-15.085.424-23.555.288-8.47.521-15.181.716-20.125.194-4.949.284-10.185.284-15.705s-.336-9.849-1-12.991a44.442 44.442 0 0 0-2.99-9.137c-1.335-2.95-3.289-5.232-5.853-6.852-2.569-1.618-5.763-2.902-9.564-3.856-10.089-2.283-22.936-3.518-38.547-3.71-35.401-.38-58.148 1.906-68.236 6.855-3.997 2.091-7.614 4.948-10.848 8.562-3.427 4.189-3.905 6.475-1.431 6.851 11.422 1.711 19.508 5.804 24.267 12.275l1.715 3.429c1.334 2.474 2.666 6.854 3.999 13.134 1.331 6.28 2.19 13.227 2.568 20.837.95 13.897.95 25.793 0 35.689-.953 9.9-1.853 17.607-2.712 23.127-.859 5.52-2.143 9.993-3.855 13.418-1.715 3.426-2.856 5.52-3.428 6.28-.571.76-1.047 1.239-1.425 1.427a21.387 21.387 0 0 1-7.71 1.431c-2.667 0-5.901-1.334-9.707-4-3.805-2.666-7.754-6.328-11.847-10.992-4.093-4.665-8.709-11.184-13.85-19.558-5.137-8.374-10.467-18.271-15.987-29.691l-4.567-8.282c-2.855-5.328-6.755-13.086-11.704-23.267-4.952-10.185-9.329-20.037-13.134-29.554-1.521-3.997-3.806-7.04-6.851-9.134l-1.429-.859c-.95-.76-2.475-1.567-4.567-2.427a30.301 30.301 0 0 0-6.567-1.854l-78.229.568c-7.994 0-13.418 1.811-16.274 5.428l-1.143 1.711c-.571.953-.859 2.475-.859 4.57 0 2.094.571 4.664 1.714 7.707 11.42 26.84 23.839 52.725 37.257 77.659 13.418 24.934 25.078 45.019 34.973 60.237 9.897 15.229 19.985 29.602 30.264 43.112 10.279 13.515 17.083 22.176 20.412 25.981 3.333 3.812 5.951 6.662 7.854 8.565l7.139 6.851c4.568 4.569 11.276 10.041 20.127 16.416 8.853 6.379 18.654 12.659 29.408 18.85 10.756 6.181 23.269 11.225 37.546 15.126 14.275 3.905 28.169 5.472 41.684 4.716h32.834c6.659-.575 11.704-2.669 15.133-6.283l1.136-1.431c.764-1.136 1.479-2.901 2.139-5.276.668-2.379 1-5 1-7.851-.195-8.183.428-15.558 1.852-22.124 1.423-6.564 3.045-11.513 4.859-14.846 1.813-3.33 3.859-6.14 6.136-8.418 2.282-2.283 3.908-3.666 4.862-4.142.948-.479 1.705-.804 2.276-.999 4.568-1.522 9.944-.048 16.136 4.429 6.187 4.473 11.99 9.996 17.418 16.56 5.425 6.57 11.943 13.941 19.555 22.124 7.617 8.186 14.277 14.271 19.985 18.274l5.708 3.426c3.812 2.286 8.761 4.38 14.853 6.283 6.081 1.902 11.409 2.378 15.984 1.427l73.087-1.14c7.229 0 12.854-1.197 16.844-3.572 3.998-2.379 6.373-5 7.139-7.851.764-2.854.805-6.092.145-9.712-.677-3.611-1.344-6.136-2.008-7.563z"/></symbol></svg>